<svg width="188" height="23" viewBox="0 0 188 23" fill="none" xmlns="http://www.w3.org/2000/svg">
<path fill-rule="evenodd" clip-rule="evenodd" d="M39.8319 21.5112C39.8319 21.9791 39.5962 22.2131 39.1248 22.2131H30.82C30.6194 22.2131 30.4564 22.1546 30.331 22.0376C30.2056 21.9206 30.1429 21.7554 30.1429 21.5418C30.1429 21.3587 30.1856 21.2112 30.2708 21.0993C30.3561 20.9874 30.489 20.8959 30.6695 20.8247L31.3164 20.6263C31.4769 20.5754 31.6023 20.4788 31.6926 20.3364C31.7828 20.194 31.828 19.9906 31.828 19.7261V10.9073C31.828 10.7649 31.7929 10.6454 31.7227 10.5487C31.6524 10.4521 31.5221 10.3631 31.3315 10.2817L30.4589 9.99185C30.2282 9.87996 30.0627 9.76044 29.9624 9.6333C29.8621 9.50615 29.8119 9.35103 29.8119 9.16794C29.8119 8.98485 29.8746 8.83482 30 8.71785L30.0493 8.67672C30.1694 8.58717 30.326 8.54239 30.5191 8.54239H31.8393L31.8289 8.45323C31.8007 8.27491 31.7302 8.10374 31.6173 7.93972C31.4669 7.72103 31.2964 7.47436 31.1058 7.19973C30.9152 6.9251 30.7447 6.59706 30.5943 6.21562C30.4438 5.83419 30.3686 5.36375 30.3686 4.80431C30.3686 3.47182 30.82 2.40634 31.7227 1.60787C32.6254 0.809393 33.9092 0.410156 35.5742 0.410156C36.6474 0.410156 37.5375 0.583074 38.2446 0.92891C38.9517 1.27475 39.4808 1.73501 39.8319 2.30971C40.1829 2.88441 40.3584 3.51251 40.3584 4.19401C40.3584 4.99757 40.1503 5.60024 39.7341 6.00202C39.3178 6.4038 38.7837 6.60469 38.1318 6.60469C37.4096 6.60469 36.8279 6.37074 36.3866 5.90285C35.9453 5.43495 35.7246 4.81448 35.7246 4.04143V2.68352C35.7246 2.32751 35.6544 2.06559 35.514 1.89776C35.3736 1.72993 35.1579 1.64601 34.867 1.64601C34.4959 1.64601 34.2151 1.77316 34.0245 2.02745C33.834 2.28174 33.7387 2.64792 33.7387 3.12599C33.7387 3.61422 33.8515 4.07195 34.0772 4.49916C34.3029 4.92637 34.5812 5.3256 34.9122 5.69687C35.2432 6.06813 35.5742 6.42414 35.9051 6.76489C36.2361 7.10564 36.5145 7.44131 36.7401 7.77189L36.8045 7.87098C36.9263 8.06902 37.0076 8.26615 37.0482 8.46236L37.0619 8.54239H39.2903C39.5209 8.54239 39.699 8.5907 39.8243 8.68733C39.9497 8.78397 40.0124 8.934 40.0124 9.13743C40.0124 9.44258 39.882 9.69178 39.6212 9.88505C39.3605 10.0783 38.9492 10.1749 38.3876 10.1749H37.3194V19.6803C37.3194 19.9651 37.362 20.1838 37.4473 20.3364C37.5325 20.489 37.6704 20.5805 37.861 20.611L39.1549 20.8094C39.3855 20.8399 39.556 20.9137 39.6664 21.0306C39.7767 21.1476 39.8319 21.3078 39.8319 21.5112ZM10.2084 21.8622C9.30571 22.2995 8.25256 22.5182 7.04897 22.5182C5.77516 22.5182 4.63426 22.2487 3.62625 21.7096C2.61824 21.1705 1.82336 20.3898 1.24162 19.3676C0.659887 18.3453 0.369019 17.1018 0.369019 15.6371C0.369019 14.2233 0.672425 12.9594 1.27924 11.8456C1.88605 10.7318 2.73107 9.85199 3.81431 9.20609C4.89754 8.56019 6.16132 8.23724 7.60563 8.23724C8.83931 8.23724 9.87992 8.42033 10.7275 8.78651C11.575 9.15269 12.2219 9.64855 12.6683 10.2741C13.1146 10.8997 13.3377 11.599 13.3377 12.372C13.3377 13.1857 13.1046 13.824 12.6382 14.2868C12.1718 14.7496 11.5374 14.981 10.735 14.981C9.91252 14.981 9.28816 14.7445 8.86188 14.2716C8.43561 13.7986 8.22247 13.1501 8.22247 12.3262V11.3498C8.22247 10.8514 8.1322 10.475 7.95166 10.2207C7.77112 9.96642 7.51536 9.83927 7.18437 9.83927C6.85338 9.83927 6.55499 9.97405 6.2892 10.2436C6.02341 10.5131 5.81779 10.9175 5.67236 11.4566C5.52692 11.9957 5.45421 12.6619 5.45421 13.4553C5.45421 14.5945 5.62221 15.5507 5.95821 16.3237C6.29421 17.0967 6.75308 17.6765 7.33482 18.063C7.91656 18.4496 8.57854 18.6428 9.32075 18.6428C10.063 18.6428 10.6848 18.5335 11.1863 18.3148C11.6878 18.0961 12.074 17.7274 12.3448 17.2086C12.4952 17.0662 12.6131 16.9747 12.6983 16.934C12.7836 16.8933 12.8663 16.873 12.9466 16.873C13.0469 16.8831 13.1296 16.9315 13.1948 17.0179C13.26 17.1044 13.2876 17.2391 13.2776 17.4222C13.1973 18.4191 12.8914 19.2989 12.3598 20.0618C11.8282 20.8247 11.1111 21.4248 10.2084 21.8622ZM25.5016 21.557C24.3732 22.1775 23.0618 22.4877 21.5673 22.4877C20.113 22.4877 18.8367 22.1851 17.7384 21.5799C16.6401 20.9747 15.7851 20.1381 15.1732 19.07C14.5614 18.002 14.2555 16.7662 14.2555 15.3625C14.2555 14.0198 14.5764 12.8119 15.2184 11.7388C15.8603 10.6657 16.7479 9.81384 17.8813 9.1832C19.0147 8.55256 20.3186 8.23724 21.793 8.23724C23.2574 8.23724 24.5362 8.54239 25.6295 9.15269C26.7227 9.76299 27.5753 10.6072 28.1871 11.6854C28.7989 12.7636 29.1048 14.0096 29.1048 15.4235C29.1048 16.7662 28.7864 17.969 28.1495 19.0319C27.5126 20.0948 26.6299 20.9365 25.5016 21.557ZM22.7107 20.9009C22.3998 20.962 22.0964 20.8246 21.8005 20.489C21.5046 20.1533 21.2238 19.5888 20.958 18.7954C20.6922 18.002 20.439 16.9594 20.1982 15.6676C19.9675 14.3758 19.8372 13.3129 19.8071 12.4788C19.777 11.6447 19.8372 11.0141 19.9876 10.5869C20.1381 10.1597 20.3687 9.91047 20.6797 9.83927C20.9906 9.77824 21.294 9.91556 21.5899 10.2512C21.8858 10.5869 22.1691 11.1514 22.4399 11.9448C22.7107 12.7382 22.9665 13.7808 23.2072 15.0726C23.4479 16.3644 23.5808 17.4299 23.6059 18.269C23.631 19.1082 23.5658 19.7414 23.4103 20.1686C23.2549 20.5958 23.0217 20.8399 22.7107 20.9009ZM49.6261 22.2131C50.0975 22.2131 50.3332 21.9791 50.3332 21.5112C50.3332 21.3078 50.2781 21.1476 50.1677 21.0306C50.0574 20.9137 49.8869 20.8399 49.6562 20.8094L48.3623 20.611C48.1718 20.5805 48.0339 20.489 47.9486 20.3364C47.8634 20.1838 47.8207 19.9651 47.8207 19.6803V10.1749H48.8889C49.4506 10.1749 49.8618 10.0783 50.1226 9.88505C50.3834 9.69178 50.5138 9.44258 50.5138 9.13743C50.5138 8.934 50.4511 8.78397 50.3257 8.68733C50.2003 8.5907 50.0223 8.54239 49.7916 8.54239H47.5633L47.5495 8.46236C47.5089 8.26615 47.4277 8.06902 47.3058 7.87098L47.2415 7.77189C47.0158 7.44131 46.7375 7.10564 46.4065 6.76489C46.0755 6.42414 45.7445 6.06813 45.4135 5.69687C45.0826 5.3256 44.8042 4.92637 44.5785 4.49916C44.3529 4.07195 44.24 3.61422 44.24 3.12599C44.24 2.64792 44.3353 2.28174 44.5259 2.02745C44.7165 1.77316 44.9973 1.64601 45.3684 1.64601C45.6593 1.64601 45.8749 1.72993 46.0153 1.89776C46.1558 2.06559 46.226 2.32751 46.226 2.68352V4.04143C46.226 4.81448 46.4466 5.43495 46.8879 5.90285C47.3293 6.37074 47.911 6.60469 48.6332 6.60469C49.2851 6.60469 49.8192 6.4038 50.2354 6.00202C50.6517 5.60024 50.8598 4.99757 50.8598 4.19401C50.8598 3.51251 50.6843 2.88441 50.3332 2.30971C49.9822 1.73501 49.4531 1.27475 48.746 0.92891C48.0389 0.583074 47.1487 0.410156 46.0755 0.410156C44.4105 0.410156 43.1267 0.809393 42.224 1.60787C41.3213 2.40634 40.87 3.47182 40.87 4.80431C40.87 5.36375 40.9452 5.83419 41.0956 6.21562C41.2461 6.59706 41.4166 6.9251 41.6072 7.19973C41.7977 7.47436 41.9683 7.72103 42.1187 7.93972C42.2315 8.10374 42.3021 8.27491 42.3303 8.45323L42.3406 8.54239H41.0204C40.8273 8.54239 40.6707 8.58717 40.5506 8.67672L40.5014 8.71785C40.376 8.83482 40.3133 8.98485 40.3133 9.16794C40.3133 9.35103 40.3635 9.50615 40.4638 9.6333C40.5641 9.76044 40.7296 9.87996 40.9602 9.99185L41.8328 10.2817C42.0234 10.3631 42.1538 10.4521 42.224 10.5487C42.2942 10.6454 42.3293 10.7649 42.3293 10.9073V19.7261C42.3293 19.9906 42.2842 20.194 42.1939 20.3364C42.1037 20.4788 41.9783 20.5754 41.8178 20.6263L41.1709 20.8247C40.9903 20.8959 40.8574 20.9874 40.7722 21.0993C40.6869 21.2112 40.6443 21.3587 40.6443 21.5418C40.6443 21.7554 40.707 21.9206 40.8324 22.0376C40.9577 22.1546 41.1207 22.2131 41.3213 22.2131H49.6261ZM61.4063 21.7706C60.4334 22.269 59.31 22.5182 58.0362 22.5182C56.632 22.5182 55.3984 22.2258 54.3352 21.6409C53.272 21.0561 52.442 20.2372 51.8452 19.1845C51.2485 18.1317 50.9501 16.9137 50.9501 15.5303C50.9501 14.0758 51.2384 12.8018 51.8152 11.7083C52.3919 10.6149 53.2269 9.76299 54.3201 9.15269C55.4134 8.54239 56.7273 8.23724 58.2619 8.23724C59.5658 8.23724 60.6892 8.49407 61.632 9.00774C62.5748 9.52141 63.2995 10.2182 63.806 11.098C64.3125 11.9779 64.5657 12.9569 64.5657 14.0351C64.5657 14.503 64.4404 14.8717 64.1896 15.1412L64.1298 15.2011C63.8827 15.4307 63.5415 15.5456 63.1064 15.5456H56.2288L56.2435 15.616C56.426 16.4536 56.7377 17.1244 57.1787 17.6282C57.9309 18.4877 58.9339 18.9175 60.1877 18.9175C60.9901 18.9175 61.6997 18.7344 62.3165 18.3682C62.9334 18.002 63.3471 17.4934 63.5577 16.8425C63.6781 16.7102 63.7859 16.6212 63.8812 16.5754C63.9765 16.5297 64.0592 16.5068 64.1294 16.5068C64.2297 16.5068 64.315 16.5475 64.3852 16.6288C64.4554 16.7102 64.4905 16.8475 64.4905 17.0408C64.4905 18.0376 64.2197 18.9505 63.6781 19.7795C63.1365 20.6085 62.3792 21.2722 61.4063 21.7706ZM56.0718 14.3225C56.0575 14.0884 56.0503 13.8451 56.0503 13.5926C56.0503 12.6365 56.1205 11.8838 56.2609 11.3345C56.4014 10.7852 56.5819 10.3962 56.8026 10.1673C57.0232 9.93845 57.2689 9.82401 57.5398 9.82401C57.8908 9.82401 58.2193 10.1241 58.5252 10.7242C58.8311 11.3243 58.9841 12.3212 58.9841 13.7147C58.9841 14.1419 58.7935 14.3555 58.4124 14.3555H56.0737L56.0718 14.3225ZM75.7893 21.7706C74.8164 22.269 73.693 22.5182 72.4192 22.5182C71.015 22.5182 69.7813 22.2258 68.7181 21.6409C67.655 21.0561 66.825 20.2372 66.2282 19.1845C65.6314 18.1317 65.333 16.9137 65.333 15.5303C65.333 14.0758 65.6214 12.8018 66.1981 11.7083C66.7748 10.6149 67.6098 9.76299 68.7031 9.15269C69.7964 8.54239 71.1103 8.23724 72.6449 8.23724C73.9488 8.23724 75.0721 8.49407 76.0149 9.00774C76.9577 9.52141 77.6824 10.2182 78.1889 11.098C78.6954 11.9779 78.9487 12.9569 78.9487 14.0351C78.9487 14.503 78.8233 14.8717 78.5726 15.1412L78.5127 15.2011C78.2656 15.4307 77.9245 15.5456 77.4893 15.5456H70.6117L70.6265 15.616C70.8089 16.4536 71.1207 17.1244 71.5616 17.6282C72.3139 18.4877 73.3169 18.9175 74.5706 18.9175C75.373 18.9175 76.0826 18.7344 76.6995 18.3682C77.3163 18.002 77.7301 17.4934 77.9407 16.8425C78.061 16.7102 78.1689 16.6212 78.2641 16.5754C78.3594 16.5297 78.4422 16.5068 78.5124 16.5068C78.6127 16.5068 78.6979 16.5475 78.7682 16.6288C78.8384 16.7102 78.8735 16.8475 78.8735 17.0408C78.8735 18.0376 78.6027 18.9505 78.061 19.7795C77.5194 20.6085 76.7622 21.2722 75.7893 21.7706ZM70.4547 14.3225C70.4404 14.0884 70.4333 13.8451 70.4333 13.5926C70.4333 12.6365 70.5035 11.8838 70.6439 11.3345C70.7843 10.7852 70.9649 10.3962 71.1855 10.1673C71.4062 9.93845 71.6519 9.82401 71.9227 9.82401C72.2738 9.82401 72.6022 10.1241 72.9082 10.7242C73.2141 11.3243 73.367 12.3212 73.367 13.7147C73.367 14.1419 73.1765 14.3555 72.7953 14.3555H70.4567L70.4547 14.3225ZM88.6151 22.0224C88.4897 22.1495 88.3066 22.2131 88.0659 22.2131H80.5434C80.3228 22.2131 80.1498 22.1521 80.0244 22.03C79.899 21.9079 79.8363 21.7401 79.8363 21.5265C79.8363 21.3637 79.874 21.229 79.9492 21.1222C80.0244 21.0154 80.1272 20.9162 80.2576 20.8247L80.6036 20.6873C80.734 20.6263 80.8243 20.5297 80.8744 20.3974C80.9246 20.2652 80.9497 20.0465 80.9497 19.7414V11.9906C80.9497 11.7465 80.9221 11.571 80.8669 11.4642C80.8118 11.3574 80.719 11.2735 80.5886 11.2124L80.1974 11.1667C80.057 11.0853 79.9542 10.9988 79.889 10.9073C79.8238 10.8158 79.7912 10.6988 79.7912 10.5564C79.7912 10.3936 79.8414 10.2487 79.9417 10.1215C80.042 9.99439 80.2125 9.88505 80.4532 9.7935L84.7259 8.55764C84.9767 8.45593 85.1873 8.38473 85.3578 8.34404C85.5283 8.30335 85.6738 8.28301 85.7941 8.28301C85.9646 8.28301 86.0925 8.34404 86.1778 8.4661L86.2052 8.51037C86.2755 8.63795 86.3241 8.84189 86.3508 9.12217L86.4653 11.493L86.4914 11.4055C86.5423 11.2403 86.5982 11.0819 86.6592 10.9302C87.0253 10.0198 87.5093 9.3434 88.1111 8.90094C88.7129 8.45847 89.3698 8.23724 90.0819 8.23724C90.9445 8.23724 91.6065 8.52713 92.0679 9.10691C92.5293 9.6867 92.7599 10.5665 92.7599 11.7465C92.7599 12.9162 92.5192 13.7757 92.0378 14.325C91.5563 14.8742 90.9345 15.1489 90.1722 15.1489C89.43 15.1489 88.8809 14.9607 88.5248 14.5843C88.1687 14.208 87.9807 13.674 87.9606 12.9823L87.9456 12.372C87.9355 12.1381 87.8904 11.955 87.8102 11.8227C87.7299 11.6905 87.5995 11.6244 87.419 11.6244C87.2384 11.6244 87.0805 11.7185 86.9451 11.9067C86.8097 12.0948 86.7069 12.3822 86.6367 12.7687C86.5664 13.1552 86.5313 13.6486 86.5313 14.2487V19.6193C86.5313 19.9041 86.5765 20.1304 86.6667 20.2983C86.757 20.4661 86.8974 20.5704 87.088 20.611L88.2164 20.8399C88.427 20.8704 88.5774 20.9493 88.6677 21.0764C88.758 21.2035 88.8031 21.3536 88.8031 21.5265C88.8031 21.7299 88.7404 21.8952 88.6151 22.0224ZM100.643 22.4877C102.138 22.4877 103.449 22.1775 104.578 21.557C105.706 20.9365 106.589 20.0948 107.226 19.0319C107.863 17.969 108.181 16.7662 108.181 15.4235C108.181 14.0096 107.875 12.7636 107.263 11.6854C106.651 10.6072 105.799 9.76299 104.706 9.15269C103.612 8.54239 102.334 8.23724 100.869 8.23724C99.3948 8.23724 98.0909 8.55256 96.9575 9.1832C95.8241 9.81384 94.9364 10.6657 94.2945 11.7388C93.6526 12.8119 93.3316 14.0198 93.3316 15.3625C93.3316 16.7662 93.6376 18.002 94.2494 19.07C94.8612 20.1381 95.7163 20.9747 96.8146 21.5799C97.9128 22.1851 99.1891 22.4877 100.643 22.4877ZM100.877 20.489C101.173 20.8246 101.476 20.962 101.787 20.9009C102.098 20.8399 102.331 20.5958 102.486 20.1686C102.642 19.7414 102.707 19.1082 102.682 18.269C102.657 17.4299 102.524 16.3644 102.283 15.0726C102.043 13.7808 101.787 12.7382 101.516 11.9448C101.245 11.1514 100.962 10.5869 100.666 10.2512C100.37 9.91556 100.067 9.77824 99.7558 9.83927C99.4449 9.91047 99.2142 10.1597 99.0638 10.5869C98.9133 11.0141 98.8531 11.6447 98.8832 12.4788C98.9133 13.3129 99.0437 14.3758 99.2744 15.6676C99.5151 16.9594 99.7684 18.002 100.034 18.7954C100.3 19.5888 100.581 20.1533 100.877 20.489ZM120.112 22.5182C120.954 22.5182 121.646 22.3631 122.188 22.0529C122.729 21.7426 123.133 21.3739 123.399 20.9467C123.665 20.5195 123.798 20.1279 123.798 19.7719C123.798 19.6193 123.765 19.4922 123.7 19.3904C123.635 19.2887 123.547 19.2379 123.437 19.2379C123.386 19.2379 123.341 19.248 123.301 19.2684C123.261 19.2887 123.226 19.3192 123.196 19.3599C123.146 19.543 123.068 19.6702 122.963 19.7414C122.857 19.8126 122.744 19.8482 122.624 19.8482C122.454 19.8482 122.326 19.7897 122.24 19.6727C122.155 19.5557 122.113 19.4006 122.113 19.2074V12.4636C122.113 11.1209 121.659 10.0808 120.751 9.3434C119.843 8.60596 118.422 8.23724 116.486 8.23724C114.981 8.23724 113.725 8.42541 112.717 8.80176C111.709 9.17812 110.952 9.65873 110.445 10.2436C109.939 10.8285 109.685 11.426 109.685 12.0363C109.685 12.6873 109.874 13.1832 110.25 13.524C110.626 13.8647 111.17 14.0351 111.882 14.0351C112.755 14.0351 113.442 13.7986 113.943 13.3256C114.445 12.8526 114.695 12.2398 114.695 11.4871V10.3275C114.695 10.0427 114.783 9.82147 114.959 9.66381C115.134 9.50615 115.352 9.42732 115.613 9.42732C115.894 9.42732 116.117 9.53158 116.283 9.7401C116.448 9.94862 116.531 10.2309 116.531 10.5869L116.531 15.0344L116.451 15.017C116.209 14.9703 115.928 14.9436 115.61 14.9369L115.448 14.9353C113.291 14.9353 111.684 15.3014 110.626 16.0338C109.568 16.7662 109.039 17.7884 109.039 19.1006C109.039 20.0974 109.402 20.9162 110.129 21.557C110.856 22.1978 111.822 22.5182 113.025 22.5182C113.928 22.5182 114.771 22.3326 115.553 21.9613C116.14 21.6829 116.616 21.3172 116.983 20.8642L117.004 20.8378L117.026 20.9061C117.142 21.2358 117.354 21.5313 117.662 21.7925L117.757 21.8698C118.314 22.3021 119.099 22.5182 120.112 22.5182ZM114.929 19.6422C115.174 19.9728 115.498 20.1381 115.899 20.1381L115.985 20.1351C116.156 20.1232 116.322 20.0755 116.482 19.992L116.531 19.9643V16.0491L116.456 16.0262C116.285 15.9804 116.085 15.9575 115.854 15.9575C115.463 15.9575 115.149 16.1406 114.914 16.5068C114.678 16.873 114.56 17.4121 114.56 18.1241C114.56 18.8056 114.683 19.3116 114.929 19.6422ZM130.718 22.564C132.504 22.564 133.873 22.1521 134.826 21.3281C135.778 20.5042 136.255 19.3803 136.255 17.9562C136.255 17.0917 136.094 16.3339 135.773 15.6829C135.452 15.0319 134.891 14.4547 134.088 13.9512C133.286 13.4477 132.158 12.9721 130.703 12.5246C130.162 12.3517 129.743 12.1762 129.447 11.9982C129.151 11.8202 128.948 11.6295 128.838 11.4261C128.727 11.2226 128.672 11.0039 128.672 10.77C128.672 10.4241 128.798 10.1444 129.048 9.93082C129.299 9.71721 129.67 9.61041 130.162 9.61041C130.844 9.61041 131.488 9.83927 132.095 10.297C132.702 10.7547 133.371 11.5379 134.103 12.6466C134.294 12.8806 134.485 13.051 134.675 13.1578C134.866 13.2646 135.046 13.2976 135.217 13.2569C135.427 13.1959 135.558 13.0561 135.608 12.8374C135.658 12.6187 135.648 12.3059 135.578 11.899L135.187 9.09166C135.147 8.79668 135.071 8.58816 134.961 8.4661C134.851 8.34404 134.705 8.28301 134.525 8.28301C134.364 8.28301 134.164 8.33895 133.923 8.45084C133.682 8.56273 133.444 8.67716 133.208 8.79414C132.973 8.91111 132.794 8.9696 132.674 8.9696C132.564 8.9696 132.401 8.90857 132.185 8.78651C131.97 8.66445 131.666 8.54239 131.275 8.42033C130.884 8.29827 130.377 8.23724 129.755 8.23724C128.722 8.23724 127.792 8.42541 126.965 8.80176C126.137 9.17812 125.485 9.71467 125.009 10.4114C124.532 11.1082 124.294 11.9397 124.294 12.906C124.294 13.7604 124.472 14.5081 124.828 15.1489C125.184 15.7897 125.728 16.339 126.461 16.7967C127.193 17.2544 128.116 17.6257 129.229 17.9105C129.951 18.1037 130.505 18.2995 130.891 18.4979C131.277 18.6962 131.543 18.9124 131.689 19.1463C131.834 19.3803 131.907 19.6397 131.907 19.9245C131.907 20.3008 131.781 20.611 131.531 20.8552C131.28 21.0993 130.899 21.2213 130.387 21.2213C129.906 21.2213 129.447 21.1171 129.011 20.9086C128.574 20.7 128.126 20.3415 127.664 19.8329C127.203 19.3243 126.686 18.6276 126.115 17.7426C125.944 17.5087 125.751 17.3459 125.535 17.2544C125.32 17.1629 125.102 17.1679 124.881 17.2697C124.67 17.351 124.535 17.524 124.475 17.7884C124.414 18.0529 124.43 18.3784 124.52 18.7649L124.986 21.8011C125.056 22.1063 125.157 22.3097 125.287 22.4114C125.417 22.5131 125.558 22.564 125.708 22.564C125.879 22.564 126.087 22.5081 126.333 22.3962L127.07 22.0605C127.316 21.9486 127.514 21.8927 127.664 21.8927C127.815 21.8927 128.013 21.9486 128.258 22.0605C128.504 22.1724 128.825 22.2843 129.221 22.3962C129.618 22.5081 130.117 22.564 130.718 22.564ZM144.981 21.9918C144.319 22.3428 143.537 22.5182 142.634 22.5182C141.109 22.5182 139.963 22.147 139.196 21.4044C138.429 20.6619 138.045 19.4922 138.045 17.8952V10.9988C138.045 10.7852 138.025 10.6225 137.985 10.5106C137.945 10.3987 137.845 10.3072 137.684 10.236L136.977 10.0071C136.806 9.92573 136.696 9.82656 136.646 9.70958C136.596 9.59261 136.571 9.44766 136.571 9.27475C136.571 9.06114 136.646 8.88568 136.796 8.74836C136.947 8.61105 137.132 8.54239 137.353 8.54239H138.09C138.181 8.54239 138.276 8.50679 138.376 8.43559C138.476 8.36438 138.612 8.22198 138.782 8.00838L141.566 5.67398C141.766 5.42986 141.967 5.24423 142.167 5.11709C142.368 4.98994 142.569 4.92637 142.769 4.92637C143 4.92637 143.181 4.99757 143.311 5.13997L143.352 5.19045C143.455 5.33311 143.507 5.54006 143.507 5.8113L143.506 8.54239H146.651C146.872 8.54239 147.042 8.5907 147.162 8.68733C147.283 8.78396 147.343 8.934 147.343 9.13743C147.343 9.42223 147.218 9.66636 146.967 9.86979L146.911 9.91182C146.658 10.0872 146.275 10.1749 145.763 10.1749H143.506L143.507 17.1323C143.507 17.8952 143.634 18.4597 143.89 18.8259C144.146 19.1921 144.52 19.3752 145.011 19.3752C145.222 19.3752 145.417 19.3294 145.598 19.2379C145.778 19.1463 145.941 19.0268 146.087 18.8793C146.232 18.7318 146.37 18.5665 146.5 18.3835C146.631 18.2004 146.756 18.0173 146.877 17.8342C146.977 17.7935 147.065 17.8113 147.14 17.8876C147.215 17.9639 147.248 18.119 147.238 18.3529C147.167 19.1768 146.939 19.9016 146.553 20.5271C146.167 21.1527 145.643 21.6409 144.981 21.9918ZM154.835 22.5182C156.109 22.5182 157.232 22.269 158.205 21.7706C159.178 21.2722 159.936 20.6085 160.477 19.7795C161.019 18.9505 161.29 18.0376 161.29 17.0408C161.29 16.8475 161.255 16.7102 161.184 16.6288C161.114 16.5475 161.029 16.5068 160.929 16.5068C160.858 16.5068 160.776 16.5297 160.68 16.5754C160.585 16.6212 160.477 16.7102 160.357 16.8425C160.146 17.4934 159.732 18.002 159.116 18.3682C158.499 18.7344 157.789 18.9175 156.987 18.9175C155.733 18.9175 154.73 18.4877 153.978 17.6282C153.537 17.1244 153.225 16.4536 153.043 15.616L153.028 15.5456H159.905C160.341 15.5456 160.682 15.4307 160.929 15.2011L160.989 15.1412C161.239 14.8717 161.365 14.503 161.365 14.0351C161.365 12.9569 161.112 11.9779 160.605 11.098C160.099 10.2182 159.374 9.52141 158.431 9.00774C157.488 8.49407 156.365 8.23724 155.061 8.23724C153.526 8.23724 152.212 8.54239 151.119 9.15269C150.026 9.76299 149.191 10.6149 148.614 11.7083C148.038 12.8018 147.749 14.0758 147.749 15.5303C147.749 16.9137 148.048 18.1317 148.644 19.1845C149.241 20.2372 150.071 21.0561 151.134 21.6409C152.197 22.2258 153.431 22.5182 154.835 22.5182ZM152.849 13.5926C152.849 13.8451 152.857 14.0884 152.871 14.3225L152.873 14.3555H155.211C155.593 14.3555 155.783 14.1419 155.783 13.7147C155.783 12.3212 155.63 11.3243 155.324 10.7242C155.018 10.1241 154.69 9.82401 154.339 9.82401C154.068 9.82401 153.822 9.93845 153.602 10.1673C153.381 10.3962 153.2 10.7852 153.06 11.3345C152.92 11.8838 152.849 12.6365 152.849 13.5926ZM170.482 22.2131C170.723 22.2131 170.906 22.1495 171.031 22.0224C171.157 21.8952 171.219 21.7299 171.219 21.5265C171.219 21.3536 171.174 21.2035 171.084 21.0764C170.994 20.9493 170.843 20.8704 170.632 20.8399L169.504 20.611C169.314 20.5704 169.173 20.4661 169.083 20.2983C168.993 20.1304 168.947 19.9041 168.947 19.6193V14.2487C168.947 13.6486 168.983 13.1552 169.053 12.7687C169.123 12.3822 169.226 12.0948 169.361 11.9067C169.497 11.7185 169.655 11.6244 169.835 11.6244C170.016 11.6244 170.146 11.6905 170.226 11.8227C170.307 11.955 170.352 12.1381 170.362 12.372L170.377 12.9823C170.397 13.674 170.585 14.208 170.941 14.5843C171.297 14.9607 171.846 15.1489 172.588 15.1489C173.351 15.1489 173.972 14.8742 174.454 14.325C174.935 13.7757 175.176 12.9162 175.176 11.7465C175.176 10.5665 174.945 9.6867 174.484 9.10691C174.023 8.52713 173.361 8.23724 172.498 8.23724C171.786 8.23724 171.129 8.45847 170.527 8.90094C169.925 9.3434 169.441 10.0198 169.075 10.9302C169.014 11.0819 168.958 11.2403 168.908 11.4055L168.881 11.4934L168.767 9.12217C168.74 8.84189 168.692 8.63795 168.621 8.51037L168.594 8.4661C168.509 8.34404 168.381 8.28301 168.21 8.28301C168.09 8.28301 167.944 8.30335 167.774 8.34404C167.603 8.38473 167.393 8.45593 167.142 8.55764L162.869 9.7935C162.629 9.88505 162.458 9.99439 162.358 10.1215C162.257 10.2487 162.207 10.3936 162.207 10.5564C162.207 10.6988 162.24 10.8158 162.305 10.9073C162.37 10.9988 162.473 11.0853 162.614 11.1667L163.005 11.2124C163.135 11.2735 163.228 11.3574 163.283 11.4642C163.338 11.571 163.366 11.7465 163.366 11.9906V19.7414C163.366 20.0465 163.341 20.2652 163.291 20.3974C163.24 20.5297 163.15 20.6263 163.02 20.6873L162.674 20.8247C162.543 20.9162 162.441 21.0154 162.365 21.1222C162.29 21.229 162.252 21.3637 162.252 21.5265C162.252 21.7401 162.315 21.9079 162.441 22.03C162.566 22.1521 162.739 22.2131 162.96 22.2131H170.482ZM186.324 21.3281C185.372 22.1521 184.002 22.564 182.217 22.564C181.615 22.564 181.116 22.5081 180.72 22.3962C180.324 22.2843 180.003 22.1724 179.757 22.0605C179.512 21.9486 179.313 21.8927 179.163 21.8927C179.013 21.8927 178.814 21.9486 178.569 22.0605L177.831 22.3962C177.586 22.5081 177.378 22.564 177.207 22.564C177.057 22.564 176.916 22.5131 176.786 22.4114C176.655 22.3097 176.555 22.1063 176.485 21.8011L176.019 18.7649C175.928 18.3784 175.913 18.0529 175.973 17.7884C176.034 17.524 176.169 17.351 176.38 17.2697C176.6 17.1679 176.818 17.1629 177.034 17.2544C177.25 17.3459 177.443 17.5087 177.613 17.7426C178.185 18.6276 178.702 19.3243 179.163 19.8329C179.624 20.3415 180.073 20.7 180.509 20.9086C180.946 21.1171 181.405 21.2213 181.886 21.2213C182.398 21.2213 182.779 21.0993 183.03 20.8552C183.28 20.611 183.406 20.3008 183.406 19.9245C183.406 19.6397 183.333 19.3803 183.187 19.1463C183.042 18.9124 182.776 18.6962 182.39 18.4979C182.004 18.2995 181.45 18.1037 180.728 17.9105C179.614 17.6257 178.692 17.2544 177.959 16.7967C177.227 16.339 176.683 15.7897 176.327 15.1489C175.971 14.5081 175.793 13.7604 175.793 12.906C175.793 11.9397 176.031 11.1082 176.508 10.4114C176.984 9.71467 177.636 9.17812 178.463 8.80176C179.291 8.42541 180.221 8.23724 181.254 8.23724C181.876 8.23724 182.383 8.29827 182.774 8.42033C183.165 8.54239 183.468 8.66445 183.684 8.78651C183.9 8.90857 184.063 8.9696 184.173 8.9696C184.293 8.9696 184.471 8.91111 184.707 8.79414C184.943 8.67716 185.181 8.56273 185.422 8.45084C185.662 8.33895 185.863 8.28301 186.023 8.28301C186.204 8.28301 186.349 8.34404 186.46 8.4661C186.57 8.58816 186.645 8.79668 186.685 9.09166L187.077 11.899C187.147 12.3059 187.157 12.6187 187.107 12.8374C187.057 13.0561 186.926 13.1959 186.716 13.2569C186.545 13.2976 186.364 13.2646 186.174 13.1578C185.983 13.051 185.793 12.8806 185.602 12.6466C184.87 11.5379 184.201 10.7547 183.594 10.297C182.987 9.83927 182.342 9.61041 181.66 9.61041C181.169 9.61041 180.798 9.71721 180.547 9.93082C180.296 10.1444 180.171 10.4241 180.171 10.77C180.171 11.0039 180.226 11.2226 180.336 11.4261C180.447 11.6295 180.65 11.8202 180.946 11.9982C181.242 12.1762 181.66 12.3517 182.202 12.5246C183.656 12.9721 184.785 13.4477 185.587 13.9512C186.39 14.4547 186.951 15.0319 187.272 15.6829C187.593 16.3339 187.754 17.0917 187.754 17.9562C187.754 19.3803 187.277 20.5042 186.324 21.3281Z" fill="white"/>
</svg>
